<?xml version="1.0" encoding="UTF-8"?>
<svg viewBox="0 0 237.48715 224.68164" xmlns="http://www.w3.org/2000/svg">
 <defs>
  <filter id="a">
   <feGaussianBlur stdDeviation="2.927"/>
  </filter>
 </defs>
 <g transform="matrix(1.8371 0 0 1.2323 -694.72 -392.92)" fill-rule="evenodd">
  <path d="m421.5349,419.8676c-.002.0427-.008.0849-.02.1269s-.0263.0786-.0459.1176c-.0387.0768-.0939.1525-.1655.2276-.1384.1457-.3365.2885-.5926.4306-.4776.265-1.1515.5266-1.9978.8056-1.3978.4616-3.2666.9265-5.2518,1.7122-.7274.2937-1.4178.5946-1.946.9758-.3799.3315-.6122.5013-.4117.5163 .2325-.2444.3858-.4402.4162-.8142-.2273-.227-.063-.2244.1763.2108h1e-005c2.3153.9215 5.0607,1.4269 8.1281,1.6356 3.2568.3955 6.8165.4539 10.6096.298 2.0693-.0824 4.1871-.234 6.3465-.4483 5.9351-.589 11.6509-1.5862 16.9294-2.5753 8.2951-2.2122 15.4851-3.8032 20.7101-4.6018 5.225-.7986 8.4845-.8045 8.8501.1754v1e-005h1e-005l.002.005 .002.005v1e-005c.3443.9866-2.2664,2.8214-7.0559,5.1632s-11.7584,5.1906-20.0618,8.1833c-5.4705,1.5378-11.6452,2.8897-18.2832,3.5604-2.4151.244-4.8103.3882-7.1661.4279-4.2751.0666-8.488-.2747-12.4174-1.091-4.2788-1.03-8.2647-2.6481-11.5582-4.7028l-1e-005-1e-005c-1.0764-1.1857-2.05-2.9568-2.5746-5.1092-.1845-1.7661.3585-3.3853 1.4142-4.6759 1.1822-1.2328 2.3292-1.8512 3.2937-2.1181 1.2869-.4268 2.4285-.5975 3.4255-.6619 2.7228-.1919 4.8167.1265 6.3237.5037 .9214.2276 1.6339.4946 2.1235.7733 .2624.1494.4623.3025.5958.4564h1e-005c.0685.0793.1199.1589.1537.2384 .0171.0403.0298.0806.0378.1209s.0121.0856.0105.1282z" fill="#502d16"/>
  <path d="m378.2433,468.85c.0175-.0211.0379-.0397.0613-.0558s.0478-.0287.0758-.0396c.0558-.0218.1223-.0345.1996-.0385 .1536-.008.3488.0184.5861.0777 .4698.1175 1.101.3616 1.8922.718 1.5488.6977 3.6994,1.8179 6.4299,3.2287 5.1948,2.6832 12.4585,6.4266 21.5644,9.973 8.4544,3.2853 18.5,6.416 29.6206,7.8024 6.7727.8441 13.9677,1.0162 21.2406.2118 4.3487-.481 8.5651-1.2944 12.5863-2.4183 5.207-1.4692 10.0013-3.3239 14.0504-5.8127 3.3118-2.0372 6.1558-4.4351 8.244-7.1327 1.936-2.4649 3.3194-5.2337 4.1789-8.0004 .906-2.8867 1.2604-5.8417 1.324-8.6324 .0865-3.2232-.243-6.2243-.6987-8.9119s-1.0391-5.0624-1.5649-7.0763c-1.5901-4.7115-2.2099-7.5799-1.5711-7.9429v-1e-005l.004-.002 .004-.002c.6484-.3432 2.4992,1.8713 5.3368,6.2692 1.0729,1.9378 2.2116,4.3417 3.2093,7.2333s1.8558,6.2729 2.2475,10.1326c.3272,3.3281.2519,7.0223-.5819,10.9117-.8151,3.7557-2.3758,7.5978-4.8088,11.1559-2.6491,3.8332-6.1737,7.2138-10.2537,9.9114-4.9256,3.26-10.5417,5.6823-16.3856,7.3947-4.5521,1.3444-9.3199,2.3081-14.2159,2.8549-8.1883.9145-16.2281.6065-23.7007-.5661-12.2069-1.9159-22.8488-5.902-31.4566-10.1694-9.2651-4.5856-16.2766-9.5046-20.9142-13.3642-2.4378-2.0283-4.2313-3.7829-5.3562-5.1076-.5746-.6767-.9776-1.244-1.2037-1.6818-.1142-.2211-.184-.4098-.2084-.5633-.0121-.077-.013-.1453-.002-.2046v-1e-005c.005-.0297.0134-.0571.0244-.0822s.0258-.0496.0433-.0708z"/>
  <path d="m484.694,425.3444c.825-.0431 1.7547,2.8127 2.71,7.9788 .2374,2.315.3116,5.119-.004,8.3212s-1.0206,6.805-2.4133,10.6171c-1.3108,3.509-3.2701,7.1037-5.9642,10.4675s-6.1244,6.4952-10.257,8.9945c-4.64,2.7761-9.929,4.7591-15.4582,5.922-2.8171.5853-5.6954.9937-8.6065,1.2396-4.3068.3639-8.5195.3612-12.5576.1303-4.5975-.6412-9.1206-1.8635-13.2266-3.6777s-7.793-4.2199-10.8549-7.1128c-2.6261-2.5959-4.592-5.478-6.0111-8.3653s-2.2926-5.78-2.7633-8.4884c-.52-3.0574-.5969-5.8408-.4535-8.2698s.5069-4.5052.9328-6.1999c1.2548-3.8239 2.2637-5.7962 2.9563-5.6548l.005.001 .005.001c.689.1633.9981,2.4073.9943,6.1665 .1156,1.6071.2726,3.4926.5916,5.5804s.7993,4.3792 1.6091,6.7473c.7045,2.0862 1.6825,4.2501 2.9986,6.3284s2.9706,4.0715 5.0031,5.7364c2.2815,1.994 5.1029,3.5867 8.3512,4.7976s6.9232,2.0411 10.7692,2.5966c3.6214.104 7.3099.0601 10.994-.2593 2.4903-.2159 4.914-.5535 7.2564-1.0315 4.6852-.9422 9.0283-2.3781 12.7451-4.4028 3.2347-1.7331 6.0479-3.9873 8.3708-6.4588s4.1553-5.1601 5.523-7.8388c1.5218-2.9207 2.5493-5.8422 3.2994-8.5402s1.2224-5.1739 1.5806-7.2907c.4208-5.0668 1.0484-7.9927 1.8734-8.0358z"/>
  <path d="m403.4219,453.4711c.007.0554.0109.1112.0103.1672-.0006.0519-.005.104-.0125.1563-.0154.1037-.0449.2083-.0881.3132-.0859.2057-.2281.4132-.4214.6177-.3686.3898-.9369.7716-1.6879,1.1023-1.3248.5894-3.2759,1.0525-5.8189.8503-2.1357-.1378-4.7539-.9232-7.2679-3.1294-1.2349-1.2515-2.2296-2.7308-2.9002-4.3354s-1.0163-3.3335-.9938-5.0449c-.007-1.0306.0799-2.0621.261-3.0776 .4832-2.7088 1.6083-5.1216 3.0779-7.0627 2.142-2.7999 4.6356-4.5993 6.8828-5.7305 2.5554-1.3073 4.8505-1.8687 6.5629-1.9714 .926-.0566 1.6972.0197 2.2698.2068 .2953.0965.5413.2215.7303.3733 .0973.0765.1798.1599.2466.2502 .069.148.1086.2242.131.263s.0274.0401.0282.0402l6e-005,1e-005-4e-005,5e-005c-.0006.0006-.003.006.003.049s.0238.1285.063.2872c.008.1115.003.2265-.0132.3452-.0353.2352-.1174.485-.2452.7508-.2477.5153-.6546,1.0862-1.1925,1.72-.9947,1.174-2.413,2.5402-3.9101,4.159-1.2978,1.4284-2.6597,2.9746-3.5662,4.6727-.573,1.0728-1.0359,2.2464-1.252,3.4169-.081.4388-.1246.8667-.1276,1.2797 .0294.6985.0617,1.3549.1407,1.8975s.2056.9715.4227,1.2568c.3302.804 1.392,1.5242 2.4799,2.2091 1.3739.7976 2.8142,1.3538 3.929,1.9107 .6288.3124 1.1473.6182 1.5329.94 .2024.1688.3645.3425.4864.523 .063.0921.1143.1862.154.2824 .0201.0486.0371.0978.0511.1476s.0264.1085.0339.1638z"/>
  <path d="m442.7195,334.79c.5557-.5545 3.6443,1.4423 8.5918,5.6235 2.4738,2.0906 5.4089,4.7322 8.6775,7.9229s6.8715,6.9304 10.6302,11.257c2.8329,3.257 5.7968,6.8952 8.5754,11.1103h1e-005c1.7757,2.6241 3.6126,5.73 4.7838,9.5947 .4073,1.2794.6667,2.8523.5933,4.6984v1e-005c-.0451,1.5269-.5868,3.1938-1.7213,4.8358-1.28,1.5693-2.7637,2.5948-4.2564,3.0748h-1e-005c-1.8595.6299-3.5843.8508-5.0555.8242-4.5914-.007-8.8867-1.0271-12.7478-2.2143-5.3296-1.5862-10.5984-3.6079-15.8013-5.8319-.9308-.3979-1.8534-.7994-2.7679-1.2028-3.4905-2.0626-6.8813-4.0615-10.2216-5.8429s-6.6302-3.3447-9.9108-4.5766c-1.8849-.6815-3.5375-1.2546-5.003-1.4077-.9421.0375-1.3993-.1498-1.1412-.1008 .1549-.082.2937-.2251.4634-.4421 .126-.2288.1826-.3305.1575-.3585-.1552.0866-.0267.6846.0531,1.6211 .1998,1.2432.6546,2.572 1.1829,3.982 .6829,1.7869 1.5006,3.5387 2.3617,5.2688 2.2238,4.462 4.6602,8.5487 6.9572,12.315 2.8425,4.6566 5.4885,8.7582 7.7327,12.2739 2.5695,4.0249 4.616,7.27 5.961,9.64 .7227,1.2735 1.2429,2.2925 1.5385,3.041 .1521.3852.2444.6985.2742.9375-.0527.1774-.0717.2943-.0813.3704-.0217.0524-.0286.084-.0299.1026-.0007.009 4e-005,.0154.0009.0191l.002.005-.001.001c-.007-.006-.0128-.008-.0221-.009-.0185-.002-.051-.001-.1064.0105h-1e-005c-.0767-.005-.1954-.008-.3796.01-.2298-.0752-.521-.2275-.87-.4545-.6782-.4411-1.5761-1.1653-2.6682-2.157-2.0325-1.8457-4.7442-4.6195-7.9495-8.2493v-1e-005c-2.7993-3.1695-5.9852-6.9939-9.3644-11.4866-2.7241-3.6174-5.6137-7.6913-8.355-12.3732-1.0648-1.8167-2.1164-3.7629-3.0714-5.8784-.7451-1.6239-1.4504-3.4558-1.9396-5.5433-.4109-1.4353-.5798-3.3488-.1374-5.6644v-1e-005c.2066-.9594.6498-1.9651 1.3559-2.9682 .7374-.9745 1.6276-1.7365 2.6279-2.2601 2.5114-1.1279 4.7597-1.3504 6.3966-1.0527 2.7041.2675 5.1594.9507 7.3311,1.734 7.4693,2.6025 14.5556,6.5207 21.4107,10.6167 .8643.3741 1.7305.7461 2.599,1.1143 4.8542,2.0581 9.5953,3.9142 14.2683,5.348 3.6753,1.0882 6.9599,2.0562 9.9022,2.0551 .8905-.0249 1.5394-.0193 1.8706-.1672 .1445-.1013.1891-.0265-.0516.1776-.1144.302-.1587.2975-.0795.1664 .087-.2942-.027-.8525-.1694-1.6095-.5187-2.3948-1.8825-4.8377-3.3216-7.4021l-1e-005-1e-005c-2.2477-3.897-4.7837-7.4752-7.247-10.8364-3.2705-4.457-6.3929-8.4339-9.1785-11.938s-5.2348-6.5347-7.2109-9.0621c-3.9523-5.0547-5.9936-8.1082-5.4379-8.6627z"/>
  <path d="m418.8267,419.1259c.007.0427.007.0862.001.1305s-.0162.085-.0324.1287c-.032.0861-.0847.175-.1578.2671-.1414.1789-.3578.3693-.6462.5736-.54.3826-1.3268.812-2.3251,1.3113-1.6702.8369-3.9475,1.8178-6.3426,3.2825-.9049.5586-1.7904,1.1485-2.5056,1.8357-.5396.5607-.9755,1.0327-1.0174,1.4021-.006.1651.0296.3674.1366.3631-.1655.0914.1228.3484.5123.9063 3.084,1.2966 6.6164,2.1323 10.5342,2.4816s8.2215.2147 12.6932-.225c1.603-.1292 3.2256-.3024 4.8651-.5172 7.7666-1.0176 15.1507-2.8504 21.8228-4.6967 8.983-2.4948 16.5964-5.1036 22.2037-6.863 5.9499-2.0492 9.7119-2.8254 10.2085-1.9001v1e-005h1e-005v1e-005 1e-005h1e-005l.002.004 .002.004v1e-005h1e-005v1e-005 1e-005c.476.9355-2.3988,3.4467-7.7675,7.004-5.1137,3.189-12.5799,7.0534-21.8472,10.4422l-1e-005,1e-005c-6.8259,2.5053-14.7138,4.7804-23.3259,5.9106-1.818.2386-3.6293.4204-5.4277.5434-5.3311.287-10.6645-.0235-15.5966-.9994s-9.4587-2.6161-13.3241-4.7518v-1e-005c-1.3995-1.4936-2.5861-3.5519-3.2027-5.9675-.2541-2.0113.2094-3.8593 1.154-5.3616 1.0703-1.5823 2.2877-2.5935 3.4274-3.2454 1.4422-.8705 2.815-1.4188 4.0617-1.8064 1.6409-.5158 3.1379-.8228 4.4667-1.0116s2.4902-.2587 3.4731-.2612c1.1821-.006 2.1181.0902 2.7803.2544 .3535.0876.6309.1949.8267.3189v1e-005c.1004.0638.1797.132.2373.2042 .0292.0366.0528.0743.0709.1129s.0318.0823.0384.125z"/>
  <path transform="matrix(-1.0623 .28103 -.25524 -1.1697 899.65 1254.1)" d="m227.5513,760.1282c.5557-.5545 3.6443,1.4423 8.5918,5.6235 2.4738,2.0906 5.4089,4.7322 8.6775,7.9229s6.8715,6.9304 10.6302,11.257c2.8329,3.257 5.7968,6.8952 8.5754,11.1103h1e-005c1.7757,2.6241 3.6126,5.73 4.7838,9.5947 .4073,1.2794.6667,2.8523.5933,4.6984v1e-005c-.0451,1.5269-.5868,3.1938-1.7213,4.8358-1.28,1.5693-2.7637,2.5948-4.2564,3.0748h-1e-005c-1.8595.6299-3.5843.8508-5.0555.8242-4.5914-.007-8.8867-1.0271-12.7478-2.2143-5.3296-1.5862-10.5984-3.6079-15.8012-5.8319-.9308-.3979-1.8534-.7994-2.7679-1.2028-3.4905-2.0626-6.8813-4.0615-10.2216-5.8429s-6.6302-3.3447-9.9108-4.5766c-1.8849-.6815-3.5375-1.2546-5.003-1.4077-.9421.0374-1.3993-.1498-1.1412-.1008 .1549-.082.2937-.2251.4634-.4421 .126-.2288.1826-.3305.1575-.3585-.1552.0866-.0267.6846.0531,1.6211 .1998,1.2432.6546,2.572 1.1829,3.982 .6829,1.7869 1.5006,3.5387 2.3617,5.2688 2.2238,4.462 4.6602,8.5487 6.9572,12.315 2.8338,4.6454 5.474,8.7395 7.7153,12.2516 5.5694,8.3329 8.4542,13.4992 7.685,14.1364v1e-005l-.002.002-.002.002v1e-005c-.7827.6201-5.1201-3.3829-11.9777-10.8273-2.8021-3.1732-5.9938-7.005-9.3818-11.5089-2.7241-3.6174-5.6137-7.6913-8.355-12.3732-1.0648-1.8167-2.1164-3.7629-3.0714-5.8784-.7451-1.6239-1.4504-3.4558-1.9396-5.5433-.4109-1.4353-.5798-3.3488-.1374-5.6644v-1e-005c.2066-.9594.6498-1.9651 1.3559-2.9682 .7374-.9745 1.6276-1.7365 2.6279-2.2601 2.5114-1.1279 4.7597-1.3504 6.3966-1.0527 2.7041.2675 5.1594.9507 7.3311,1.734 7.4693,2.6025 14.5556,6.5207 21.4107,10.6166 .8643.3741 1.7306.7461 2.599,1.1143 4.8542,2.0581 9.5953,3.9142 14.2683,5.348 3.6753,1.0882 6.9599,2.0562 9.9022,2.0551 .8905-.0249 1.5394-.0193 1.8706-.1672 .1445-.1013.1891-.0265-.0516.1776-.1144.302-.1587.2975-.0795.1664 .087-.2942-.027-.8525-.1694-1.6095-.5187-2.3948-1.8825-4.8377-3.3216-7.4021l-1e-005-1e-005c-2.2477-3.897-4.7837-7.4752-7.247-10.8364-3.2705-4.457-6.3929-8.4339-9.1785-11.938s-5.2348-6.5347-7.2109-9.0621c-3.9523-5.0547-5.9936-8.1082-5.4379-8.6627z" fill="#784421" filter="url(#a)" opacity=".559"/>
 </g>
</svg>
